<mxfile host="app.diagrams.net" modified="2024-05-11T06:33:02.779Z" agent="Mozilla/5.0 (Macintosh; Intel Mac OS X 10_15_7) AppleWebKit/605.1.15 (KHTML, like Gecko) Version/17.2.1 Safari/605.1.15" etag="ANYrUP4qypDwZSMj1GPW" version="24.4.0" type="github">
  <diagram id="C5RBs43oDa-KdzZeNtuy" name="Page-1">
    <mxGraphModel dx="1314" dy="901" grid="1" gridSize="10" guides="1" tooltips="1" connect="1" arrows="1" fold="1" page="1" pageScale="1" pageWidth="827" pageHeight="1169" math="0" shadow="0">
      <root>
        <mxCell id="WIyWlLk6GJQsqaUBKTNV-0" />
        <mxCell id="WIyWlLk6GJQsqaUBKTNV-1" parent="WIyWlLk6GJQsqaUBKTNV-0" />
        <mxCell id="ssKrWbGj_gLV4I3MfeQt-47" value="" style="rounded=1;whiteSpace=wrap;html=1;dashed=1;opacity=10;fillColor=#d5e8d4;strokeColor=#82b366;" vertex="1" parent="WIyWlLk6GJQsqaUBKTNV-1">
          <mxGeometry x="580" y="280" width="340" height="210" as="geometry" />
        </mxCell>
        <mxCell id="ssKrWbGj_gLV4I3MfeQt-32" style="edgeStyle=orthogonalEdgeStyle;rounded=0;orthogonalLoop=1;jettySize=auto;html=1;entryX=0;entryY=0.5;entryDx=0;entryDy=0;" edge="1" parent="WIyWlLk6GJQsqaUBKTNV-1" source="ssKrWbGj_gLV4I3MfeQt-0" target="ssKrWbGj_gLV4I3MfeQt-5">
          <mxGeometry relative="1" as="geometry" />
        </mxCell>
        <mxCell id="ssKrWbGj_gLV4I3MfeQt-33" style="edgeStyle=orthogonalEdgeStyle;rounded=0;orthogonalLoop=1;jettySize=auto;html=1;entryX=0;entryY=0.5;entryDx=0;entryDy=0;" edge="1" parent="WIyWlLk6GJQsqaUBKTNV-1" source="ssKrWbGj_gLV4I3MfeQt-0" target="ssKrWbGj_gLV4I3MfeQt-6">
          <mxGeometry relative="1" as="geometry" />
        </mxCell>
        <mxCell id="ssKrWbGj_gLV4I3MfeQt-0" value="SA-1: Liver and Liver Tumor Segmentation&amp;nbsp;" style="rounded=1;whiteSpace=wrap;html=1;fontSize=12;glass=0;strokeWidth=1;shadow=0;" vertex="1" parent="WIyWlLk6GJQsqaUBKTNV-1">
          <mxGeometry x="60" y="340" width="90" height="70" as="geometry" />
        </mxCell>
        <mxCell id="ssKrWbGj_gLV4I3MfeQt-34" value="" style="edgeStyle=orthogonalEdgeStyle;rounded=0;orthogonalLoop=1;jettySize=auto;html=1;" edge="1" parent="WIyWlLk6GJQsqaUBKTNV-1" source="ssKrWbGj_gLV4I3MfeQt-5" target="ssKrWbGj_gLV4I3MfeQt-10">
          <mxGeometry relative="1" as="geometry" />
        </mxCell>
        <mxCell id="ssKrWbGj_gLV4I3MfeQt-5" value="Liver Volume" style="rounded=0;whiteSpace=wrap;html=1;" vertex="1" parent="WIyWlLk6GJQsqaUBKTNV-1">
          <mxGeometry x="190" y="315" width="80" height="40" as="geometry" />
        </mxCell>
        <mxCell id="ssKrWbGj_gLV4I3MfeQt-35" value="" style="edgeStyle=orthogonalEdgeStyle;rounded=0;orthogonalLoop=1;jettySize=auto;html=1;" edge="1" parent="WIyWlLk6GJQsqaUBKTNV-1" source="ssKrWbGj_gLV4I3MfeQt-6" target="ssKrWbGj_gLV4I3MfeQt-11">
          <mxGeometry relative="1" as="geometry" />
        </mxCell>
        <mxCell id="ssKrWbGj_gLV4I3MfeQt-6" value="Liver Tumor Volume" style="rounded=0;whiteSpace=wrap;html=1;" vertex="1" parent="WIyWlLk6GJQsqaUBKTNV-1">
          <mxGeometry x="190" y="395" width="80" height="40" as="geometry" />
        </mxCell>
        <mxCell id="ssKrWbGj_gLV4I3MfeQt-36" value="" style="edgeStyle=orthogonalEdgeStyle;rounded=0;orthogonalLoop=1;jettySize=auto;html=1;" edge="1" parent="WIyWlLk6GJQsqaUBKTNV-1" source="ssKrWbGj_gLV4I3MfeQt-10" target="ssKrWbGj_gLV4I3MfeQt-17">
          <mxGeometry relative="1" as="geometry" />
        </mxCell>
        <mxCell id="ssKrWbGj_gLV4I3MfeQt-10" value="Relevant Feature Extraction" style="rounded=1;whiteSpace=wrap;html=1;" vertex="1" parent="WIyWlLk6GJQsqaUBKTNV-1">
          <mxGeometry x="290" y="315" width="120" height="40" as="geometry" />
        </mxCell>
        <mxCell id="ssKrWbGj_gLV4I3MfeQt-37" style="edgeStyle=orthogonalEdgeStyle;rounded=0;orthogonalLoop=1;jettySize=auto;html=1;entryX=0.5;entryY=1;entryDx=0;entryDy=0;" edge="1" parent="WIyWlLk6GJQsqaUBKTNV-1" source="ssKrWbGj_gLV4I3MfeQt-11" target="ssKrWbGj_gLV4I3MfeQt-17">
          <mxGeometry relative="1" as="geometry">
            <Array as="points">
              <mxPoint x="350" y="375" />
              <mxPoint x="495" y="375" />
            </Array>
          </mxGeometry>
        </mxCell>
        <mxCell id="ssKrWbGj_gLV4I3MfeQt-38" value="" style="edgeStyle=orthogonalEdgeStyle;rounded=0;orthogonalLoop=1;jettySize=auto;html=1;" edge="1" parent="WIyWlLk6GJQsqaUBKTNV-1" source="ssKrWbGj_gLV4I3MfeQt-11" target="ssKrWbGj_gLV4I3MfeQt-19">
          <mxGeometry relative="1" as="geometry" />
        </mxCell>
        <mxCell id="ssKrWbGj_gLV4I3MfeQt-11" value="Radiomics Feature Extraction" style="rounded=1;whiteSpace=wrap;html=1;" vertex="1" parent="WIyWlLk6GJQsqaUBKTNV-1">
          <mxGeometry x="290" y="395" width="120" height="40" as="geometry" />
        </mxCell>
        <mxCell id="ssKrWbGj_gLV4I3MfeQt-40" style="edgeStyle=orthogonalEdgeStyle;rounded=0;orthogonalLoop=1;jettySize=auto;html=1;entryX=0;entryY=0.5;entryDx=0;entryDy=0;" edge="1" parent="WIyWlLk6GJQsqaUBKTNV-1" source="ssKrWbGj_gLV4I3MfeQt-17" target="ssKrWbGj_gLV4I3MfeQt-27">
          <mxGeometry relative="1" as="geometry" />
        </mxCell>
        <mxCell id="ssKrWbGj_gLV4I3MfeQt-17" value="Relevant Features" style="rounded=0;whiteSpace=wrap;html=1;" vertex="1" parent="WIyWlLk6GJQsqaUBKTNV-1">
          <mxGeometry x="450" y="315" width="90" height="40" as="geometry" />
        </mxCell>
        <mxCell id="ssKrWbGj_gLV4I3MfeQt-39" value="" style="edgeStyle=orthogonalEdgeStyle;rounded=0;orthogonalLoop=1;jettySize=auto;html=1;" edge="1" parent="WIyWlLk6GJQsqaUBKTNV-1" source="ssKrWbGj_gLV4I3MfeQt-19" target="ssKrWbGj_gLV4I3MfeQt-27">
          <mxGeometry relative="1" as="geometry" />
        </mxCell>
        <mxCell id="ssKrWbGj_gLV4I3MfeQt-19" value="Radiomics Features" style="rounded=0;whiteSpace=wrap;html=1;" vertex="1" parent="WIyWlLk6GJQsqaUBKTNV-1">
          <mxGeometry x="450" y="395" width="90" height="40" as="geometry" />
        </mxCell>
        <mxCell id="ssKrWbGj_gLV4I3MfeQt-42" value="" style="edgeStyle=orthogonalEdgeStyle;rounded=0;orthogonalLoop=1;jettySize=auto;html=1;entryX=0;entryY=0.5;entryDx=0;entryDy=0;" edge="1" parent="WIyWlLk6GJQsqaUBKTNV-1" source="ssKrWbGj_gLV4I3MfeQt-21" target="ssKrWbGj_gLV4I3MfeQt-27">
          <mxGeometry relative="1" as="geometry" />
        </mxCell>
        <mxCell id="ssKrWbGj_gLV4I3MfeQt-21" value="Clinical Features" style="rounded=0;whiteSpace=wrap;html=1;" vertex="1" parent="WIyWlLk6GJQsqaUBKTNV-1">
          <mxGeometry x="450" y="475" width="90" height="40" as="geometry" />
        </mxCell>
        <mxCell id="ssKrWbGj_gLV4I3MfeQt-43" value="" style="edgeStyle=orthogonalEdgeStyle;rounded=0;orthogonalLoop=1;jettySize=auto;html=1;" edge="1" parent="WIyWlLk6GJQsqaUBKTNV-1" source="ssKrWbGj_gLV4I3MfeQt-27" target="ssKrWbGj_gLV4I3MfeQt-28">
          <mxGeometry relative="1" as="geometry" />
        </mxCell>
        <mxCell id="ssKrWbGj_gLV4I3MfeQt-27" value="&lt;div style=&quot;text-align: center;&quot;&gt;&lt;b&gt;ML Models:&lt;/b&gt;&lt;/div&gt;&lt;div&gt;&lt;ul&gt;&lt;li&gt;Logistic Regression&lt;br&gt;&lt;/li&gt;&lt;li&gt;Support Vector Machine&lt;br&gt;&lt;/li&gt;&lt;li&gt;Random Forest&amp;nbsp;&lt;br&gt;&lt;/li&gt;&lt;li&gt;Gradient Boosting&lt;br&gt;&lt;/li&gt;&lt;li&gt;Neural Network&lt;br&gt;&lt;/li&gt;&lt;/ul&gt;&lt;/div&gt;" style="rounded=1;whiteSpace=wrap;html=1;align=left;" vertex="1" parent="WIyWlLk6GJQsqaUBKTNV-1">
          <mxGeometry x="590" y="355" width="180" height="120" as="geometry" />
        </mxCell>
        <mxCell id="ssKrWbGj_gLV4I3MfeQt-44" value="" style="edgeStyle=orthogonalEdgeStyle;rounded=0;orthogonalLoop=1;jettySize=auto;html=1;" edge="1" parent="WIyWlLk6GJQsqaUBKTNV-1" source="ssKrWbGj_gLV4I3MfeQt-28" target="ssKrWbGj_gLV4I3MfeQt-31">
          <mxGeometry relative="1" as="geometry" />
        </mxCell>
        <mxCell id="ssKrWbGj_gLV4I3MfeQt-45" style="edgeStyle=orthogonalEdgeStyle;rounded=0;orthogonalLoop=1;jettySize=auto;html=1;entryX=0.5;entryY=0;entryDx=0;entryDy=0;" edge="1" parent="WIyWlLk6GJQsqaUBKTNV-1" source="ssKrWbGj_gLV4I3MfeQt-28" target="ssKrWbGj_gLV4I3MfeQt-27">
          <mxGeometry relative="1" as="geometry">
            <Array as="points">
              <mxPoint x="850" y="335" />
              <mxPoint x="680" y="335" />
            </Array>
          </mxGeometry>
        </mxCell>
        <mxCell id="ssKrWbGj_gLV4I3MfeQt-28" value="Feature selection Recursive Feature Elimination&amp;nbsp;" style="rounded=1;whiteSpace=wrap;html=1;" vertex="1" parent="WIyWlLk6GJQsqaUBKTNV-1">
          <mxGeometry x="790" y="380" width="120" height="70" as="geometry" />
        </mxCell>
        <mxCell id="ssKrWbGj_gLV4I3MfeQt-31" value="Response Output:&lt;div&gt;CR + PR/SD+PD&lt;/div&gt;" style="rounded=0;whiteSpace=wrap;html=1;" vertex="1" parent="WIyWlLk6GJQsqaUBKTNV-1">
          <mxGeometry x="790" y="500" width="120" height="40" as="geometry" />
        </mxCell>
        <mxCell id="ssKrWbGj_gLV4I3MfeQt-46" value="select optimal features" style="text;html=1;align=center;verticalAlign=middle;resizable=0;points=[];autosize=1;strokeColor=none;fillColor=none;" vertex="1" parent="WIyWlLk6GJQsqaUBKTNV-1">
          <mxGeometry x="700" y="310" width="140" height="30" as="geometry" />
        </mxCell>
        <mxCell id="ssKrWbGj_gLV4I3MfeQt-48" value="ML Models Construction" style="text;html=1;align=center;verticalAlign=middle;resizable=0;points=[];autosize=1;strokeColor=none;fillColor=none;" vertex="1" parent="WIyWlLk6GJQsqaUBKTNV-1">
          <mxGeometry x="580" y="285" width="150" height="30" as="geometry" />
        </mxCell>
      </root>
    </mxGraphModel>
  </diagram>
</mxfile>
